<svg width="24" height="25" viewBox="0 0 24 25" fill="none" xmlns="http://www.w3.org/2000/svg">
<path d="M12 16.3765C11.8667 16.3765 11.7417 16.3559 11.625 16.3145C11.5083 16.2732 11.4 16.2022 11.3 16.1015L7.7 12.5015C7.5 12.3015 7.404 12.0682 7.412 11.8015C7.42 11.5349 7.516 11.3015 7.7 11.1015C7.9 10.9015 8.13767 10.7975 8.413 10.7895C8.68833 10.7815 8.92567 10.8772 9.125 11.0765L11 12.9515V5.80152C11 5.51818 11.096 5.28085 11.288 5.08952C11.48 4.89818 11.7173 4.80218 12 4.80152C12.2827 4.80085 12.5203 4.89685 12.713 5.08952C12.9057 5.28218 13.0013 5.51952 13 5.80152V12.9515L14.875 11.0765C15.075 10.8765 15.3127 10.7805 15.588 10.7885C15.8633 10.7965 16.1007 10.9009 16.3 11.1015C16.4833 11.3015 16.5793 11.5349 16.588 11.8015C16.5967 12.0682 16.5007 12.3015 16.3 12.5015L12.7 16.1015C12.6 16.2015 12.4917 16.2725 12.375 16.3145C12.2583 16.3565 12.1333 16.3772 12 16.3765ZM6 20.8015C5.45 20.8015 4.97933 20.6059 4.588 20.2145C4.19667 19.8232 4.00067 19.3522 4 18.8015V16.8015C4 16.5182 4.096 16.2809 4.288 16.0895C4.48 15.8982 4.71733 15.8022 5 15.8015C5.28267 15.8009 5.52033 15.8969 5.713 16.0895C5.90567 16.2822 6.00133 16.5195 6 16.8015V18.8015H18V16.8015C18 16.5182 18.096 16.2809 18.288 16.0895C18.48 15.8982 18.7173 15.8022 19 15.8015C19.2827 15.8009 19.5203 15.8969 19.713 16.0895C19.9057 16.2822 20.0013 16.5195 20 16.8015V18.8015C20 19.3515 19.8043 19.8225 19.413 20.2145C19.0217 20.6065 18.5507 20.8022 18 20.8015H6Z" fill="#55BBEB"/>
</svg>
