<svg width="40" height="41" viewBox="0 0 40 41" fill="none" xmlns="http://www.w3.org/2000/svg">
<g clip-path="url(#clip0_2031_3691)">
<path d="M6.0416 33.2702C5.76371 29.271 7.26973 25.5987 10.5182 22.3554L12.0755 20.8007L10.5182 19.2448C9.11637 17.8483 8.02715 16.3508 7.27941 14.7937C7.2383 14.7079 7.21961 14.613 7.2251 14.5181C7.23059 14.4231 7.26007 14.3311 7.3108 14.2506C7.36153 14.1701 7.43185 14.1038 7.51517 14.0579C7.59849 14.012 7.69209 13.9879 7.78723 13.988H20.4185C20.5136 13.9879 20.6072 14.012 20.6905 14.0579C20.7739 14.1038 20.8442 14.1701 20.8949 14.2506C20.9456 14.3311 20.9751 14.4231 20.9806 14.5181C20.9861 14.613 20.9674 14.7079 20.9263 14.7937C20.1785 16.3503 19.0893 17.8483 17.6878 19.2451L16.1284 20.8007L17.6875 22.3554C20.9356 25.5987 22.4417 29.271 22.164 33.2702C22.1541 33.4123 22.0907 33.5454 21.9865 33.6426C21.8823 33.7397 21.7451 33.7937 21.6026 33.7937H6.60309C6.46061 33.7937 6.3234 33.7398 6.21918 33.6426C6.11496 33.5454 6.0515 33.4124 6.0416 33.2702ZM28.2057 38.1128C28.205 38.8246 27.9221 39.5071 27.4188 40.0105C26.9156 40.5139 26.2332 40.7971 25.5214 40.7979H2.68184C1.96979 40.7979 1.28691 40.5151 0.78342 40.0116C0.279929 39.5081 -0.00292969 38.8252 -0.00292969 38.1132C-0.00292969 37.4011 0.279929 36.7183 0.78342 36.2148C1.28691 35.7113 1.96979 35.4284 2.68184 35.4284H3.54121C3.03277 32.7008 3.18863 30.0518 4.00949 27.549C4.79855 25.1427 6.19988 22.8743 8.17738 20.8004C6.18785 18.7144 4.78223 16.4325 3.9959 14.01C3.18707 11.5201 3.03496 8.88498 3.54043 6.17139H2.68184C1.9701 6.17139 1.28752 5.88865 0.784249 5.38538C0.280977 4.88211 -0.00175781 4.19953 -0.00175781 3.48779C-0.00175781 2.77606 0.280977 2.09348 0.784249 1.59021C1.28752 1.08693 1.9701 0.804199 2.68184 0.804199H25.5212C26.2329 0.804199 26.9155 1.08693 27.4188 1.59021C27.9221 2.09348 28.2048 2.77606 28.2048 3.48779C28.2048 4.19953 27.9221 4.88211 27.4188 5.38538C26.9155 5.88865 26.2329 6.17139 25.5212 6.17139H24.665C25.1678 8.86779 25.02 11.4863 24.2248 13.9634C23.4408 16.4028 22.0304 18.7008 20.028 20.8004C22.0124 22.8815 23.4168 25.1578 24.2047 27.5738C25.0172 30.0685 25.171 32.7095 24.6641 35.4283H25.5212C26.233 35.4292 26.9153 35.7123 27.4185 36.2157C27.9218 36.719 28.2048 37.4014 28.2055 38.1131L28.2057 38.1128ZM4.68582 35.4287H23.5188C24.5742 30.138 23.0032 25.3501 18.844 21.1983C18.7386 21.0926 18.6794 20.9495 18.6794 20.8003C18.6794 20.651 18.7386 20.5079 18.844 20.4022C23.0047 16.2489 24.575 11.4617 23.5179 6.1717H4.68582C3.63113 11.4633 5.2023 16.2504 9.36129 20.4022C9.46675 20.5079 9.52598 20.651 9.52598 20.8003C9.52598 20.9495 9.46675 21.0926 9.36129 21.1983C5.20301 25.3501 3.63121 30.1374 4.68582 35.4287ZM39.9999 20.8007C39.9999 22.2142 39.5807 23.596 38.7954 24.7714C38.0101 25.9467 36.8938 26.8627 35.5879 27.4037C34.2819 27.9446 32.8449 28.0862 31.4585 27.8104C30.0721 27.5346 28.7986 26.8539 27.7991 25.8544C26.7996 24.8548 26.1189 23.5813 25.8431 22.195C25.5674 20.8086 25.7089 19.3715 26.2499 18.0656C26.7908 16.7596 27.7069 15.6434 28.8822 14.8581C30.0576 14.0728 31.4394 13.6536 32.8529 13.6537C34.7477 13.6559 36.5643 14.4096 37.9042 15.7494C39.244 17.0893 39.9977 18.9059 39.9999 20.8007ZM39.2096 20.8007C39.2097 19.5433 38.8369 18.3142 38.1384 17.2687C37.4399 16.2233 36.4471 15.4084 35.2855 14.9272C34.1239 14.446 32.8457 14.32 31.6125 14.5653C30.3793 14.8106 29.2465 15.416 28.3575 16.3051C27.4684 17.1942 26.8629 18.3269 26.6176 19.5601C26.3724 20.7933 26.4983 22.0715 26.9795 23.2331C27.4607 24.3947 28.2755 25.3876 29.321 26.0861C30.3665 26.7845 31.5956 27.1573 32.8529 27.1572C34.5383 27.1556 36.1542 26.4854 37.3459 25.2937C38.5377 24.1019 39.2079 22.4861 39.2096 20.8007ZM38.085 20.8007C38.0854 21.8356 37.7788 22.8473 37.204 23.708C36.6293 24.5686 35.8123 25.2395 34.8562 25.6358C33.9002 26.032 32.8481 26.1359 31.8331 25.9342C30.818 25.7325 29.8856 25.2343 29.1537 24.5026C28.4218 23.7709 27.9233 22.8386 27.7213 21.8236C27.5193 20.8086 27.6228 19.7565 28.0188 18.8004C28.4148 17.8442 29.0854 17.027 29.9459 16.452C30.8064 15.877 31.818 15.5701 32.8529 15.5701C34.2397 15.5719 35.5693 16.1235 36.5501 17.104C37.5308 18.0845 38.0828 19.4139 38.085 20.8007ZM35.9332 20.8007C35.9332 20.6514 35.874 20.5083 35.7685 20.4027C35.6631 20.2972 35.52 20.2378 35.3707 20.2376H33.4151V16.7476C33.4151 16.5985 33.3559 16.4554 33.2504 16.3499C33.1449 16.2444 33.0018 16.1851 32.8526 16.1851C32.7034 16.1851 32.5604 16.2444 32.4549 16.3499C32.3494 16.4554 32.2901 16.5985 32.2901 16.7476V20.8007C32.2903 20.9499 32.3497 21.093 32.4553 21.1985C32.5608 21.304 32.704 21.3632 32.8532 21.3632H35.371C35.5201 21.3631 35.6631 21.3038 35.7686 21.1983C35.874 21.0929 35.9332 20.9498 35.9332 20.8007Z" fill="#04577E" fill-opacity="0.3"/>
</g>
<defs>
<clipPath id="clip0_2031_3691">
<rect width="40" height="40" fill="white" transform="translate(0 0.801453)"/>
</clipPath>
</defs>
</svg>
